<svg id="Layer_1" data-name="Layer 1" xmlns="http://www.w3.org/2000/svg" viewBox="0 0 300 300"><defs><style>.cls-1{fill:#b3b3b3;}.cls-2{fill:#fff;}</style></defs><rect class="cls-1" width="300" height="300"/><rect x="25" y="25" width="250" height="250"/><path class="cls-2" d="M169.1,138.26q6.41,5,6.4,14a14.77,14.77,0,0,1-2.3,8.6,13.54,13.54,0,0,1-5.25,4.7,12,12,0,0,1-4.85,1.4v.4a16.41,16.41,0,0,1,5.55,1.15,12.56,12.56,0,0,1,5.65,4.5q2.5,3.35,2.5,9.15a15.71,15.71,0,0,1-3.45,10.05,22,22,0,0,1-9.5,6.7,37.08,37.08,0,0,1-13.55,2.35q-11.4,0-18-3.9t-9.15-12.7l18.4-7.7c.07,3.27.83,5.58,2.3,6.95a9.7,9.7,0,0,0,11.3.45,5.67,5.67,0,0,0,2-4.7,5.49,5.49,0,0,0-1.9-4.6q-1.91-1.5-6-1.5h-4.1v-12.1h3.1c2.6,0,4.5-.51,5.7-1.55a6.34,6.34,0,0,0,1.9-4.85,6.49,6.49,0,0,0-1.7-4.8,6.23,6.23,0,0,0-4.6-1.7q-7.2,0-7.5,8.6l-17.7-5.7q2.5-18.19,26.6-18.2Q162.7,133.26,169.1,138.26Z"/></svg>