<svg id="Layer_1" data-name="Layer 1" xmlns="http://www.w3.org/2000/svg" viewBox="0 0 334.58 304.12"><defs><style>.cls-1{fill:#b3b3b3;}.cls-2{fill:#fff;}.cls-3{font-size:60px;font-family:WorkSans-ExtraBold, Work Sans;font-weight:800;}</style></defs><rect class="cls-1" x="-1.75" width="334.58" height="304.12"/><rect x="61.48" y="31.25" width="125" height="125"/><path class="cls-2" d="M142.08,60.75v66h-19.6V80.25q-7.5,6.7-15.1,7.9l-1.5-16.6a31.89,31.89,0,0,0,11.7-3.9q6.11-3.3,8.5-6.9Z"/><circle class="cls-1" cx="198.54" cy="198.31" r="65.72"/><circle class="cls-1" cx="198.54" cy="198.31" r="74.56"/><path d="M198.54,269a70.72,70.72,0,1,1,70.72-70.72A70.8,70.8,0,0,1,198.54,269Zm0-131.44a60.72,60.72,0,1,0,60.72,60.72A60.79,60.79,0,0,0,198.54,137.59Z"/><text class="cls-3" transform="translate(163.29 217.75)">x1</text></svg>