<svg id="Layer_1" data-name="Layer 1" xmlns="http://www.w3.org/2000/svg" viewBox="0 0 334.58 304.12"><defs><style>.cls-1{fill:#b3b3b3;}.cls-2{fill:#fff;}.cls-3{font-size:60px;font-family:WorkSans-ExtraBold, Work Sans;font-weight:800;}</style></defs><rect class="cls-1" width="334.58" height="304.12"/><rect width="250" height="250"/><path class="cls-2" d="M144.1,96q6.41,5,6.4,14a14.77,14.77,0,0,1-2.3,8.6,13.54,13.54,0,0,1-5.25,4.7,12,12,0,0,1-4.85,1.4v.4a16.41,16.41,0,0,1,5.55,1.15,12.56,12.56,0,0,1,5.65,4.5q2.5,3.34,2.5,9.15a15.71,15.71,0,0,1-3.45,10,22,22,0,0,1-9.5,6.7A37.08,37.08,0,0,1,125.3,159q-11.4,0-18-3.9T98.2,142.4l18.4-7.7c.07,3.27.83,5.58,2.3,7a9.7,9.7,0,0,0,11.3.45,5.67,5.67,0,0,0,2-4.7,5.49,5.49,0,0,0-1.9-4.6q-1.91-1.5-6-1.5h-4.1V119.2h3.1q3.9,0,5.7-1.55a6.34,6.34,0,0,0,1.9-4.85,6.49,6.49,0,0,0-1.7-4.8,6.23,6.23,0,0,0-4.6-1.7q-7.2,0-7.5,8.6l-17.7-5.7Q101.9,91,126,91,137.7,91,144.1,96Z"/><circle class="cls-1" cx="260.02" cy="229.56" r="65.72"/><circle class="cls-1" cx="260.02" cy="229.56" r="74.56"/><path d="M260,300.28a70.72,70.72,0,1,1,70.72-70.72A70.8,70.8,0,0,1,260,300.28Zm0-131.44a60.72,60.72,0,1,0,60.72,60.72A60.79,60.79,0,0,0,260,168.84Z"/><text class="cls-3" transform="translate(224.77 249)">x3</text></svg>