<svg id="Layer_1" data-name="Layer 1" xmlns="http://www.w3.org/2000/svg" viewBox="0 0 334.58 304.12"><defs><style>.cls-1{fill:#b3b3b3;}.cls-2{fill:#4d4d4d;}.cls-3{fill:#fff;}</style></defs><rect class="cls-1" x="-1.75" width="334.58" height="304.12"/><rect class="cls-2" x="61.48" y="31.25" width="125" height="125" rx="62.5"/><path class="cls-1" d="M142.08,60.75v66h-19.6V80.25q-7.5,6.7-15.1,7.9l-1.5-16.6a31.89,31.89,0,0,0,11.7-3.9q6.11-3.3,8.5-6.9Z"/><circle class="cls-1" cx="198.54" cy="198.31" r="65.72"/><circle class="cls-1" cx="198.54" cy="198.31" r="74.56"/><path class="cls-3" d="M198.54,269a70.72,70.72,0,1,1,70.72-70.72A70.8,70.8,0,0,1,198.54,269Zm0-131.44a60.72,60.72,0,1,0,60.72,60.72A60.79,60.79,0,0,0,198.54,137.59Z"/><path d="M189.07,226.06l-5.14-9.92-5.08,9.92H165.42l10.71-15.36-10.34-14.88h13.6l4.78,9.44,4.9-9.44h13.36l-10.34,15.06,10.58,15.18Z"/><path d="M209.23,221.52Q205,216.39,205,206.1t4.26-15.41q4.26-5.15,13-5.14t12.91,5.14q4.26,5.13,4.26,15.41t-4.26,15.42q-4.26,5.14-12.91,5.14T209.23,221.52Zm15.93-5.35a6.54,6.54,0,0,0,1.58-3.45,45.89,45.89,0,0,0,0-13.24,6.54,6.54,0,0,0-1.58-3.44,4,4,0,0,0-3-1.06,4.12,4.12,0,0,0-3,1.06,6.46,6.46,0,0,0-1.57,3.44,45,45,0,0,0,0,13.24,6.46,6.46,0,0,0,1.57,3.45,4.12,4.12,0,0,0,3,1.06A4,4,0,0,0,225.16,216.17Z"/></svg>