<svg id="Layer_1" data-name="Layer 1" xmlns="http://www.w3.org/2000/svg" viewBox="0 0 334.58 304.12"><defs><style>.cls-1{fill:#b3b3b3;}.cls-2{fill:#fff;}</style></defs><rect class="cls-1" x="-1.75" width="334.58" height="304.12"/><rect class="cls-2" x="61.48" y="31.25" width="125" height="125" rx="62.5"/><path d="M142.08,60.75v66h-19.6V80.25q-7.5,6.7-15.1,7.9l-1.5-16.6a31.89,31.89,0,0,0,11.7-3.9q6.11-3.3,8.5-6.9Z"/><circle class="cls-1" cx="198.54" cy="198.31" r="65.72"/><circle class="cls-1" cx="198.54" cy="198.31" r="74.56"/><path class="cls-2" d="M198.54,269a70.72,70.72,0,1,1,70.72-70.72A70.8,70.8,0,0,1,198.54,269Zm0-131.44a60.72,60.72,0,1,0,60.72,60.72A60.79,60.79,0,0,0,198.54,137.59Z"/><path d="M189.07,218.06l-5.14-9.91-5.08,9.91H165.42l10.71-15.36-10.34-14.87h13.6l4.78,9.43,4.9-9.43h13.36l-10.34,15.06,10.58,15.17Z"/><path d="M231.69,180.57a10.14,10.14,0,0,1,3.87,8.47,8.88,8.88,0,0,1-1.39,5.2,8.13,8.13,0,0,1-3.17,2.84,7.36,7.36,0,0,1-2.93.85v.24a10,10,0,0,1,3.35.69,7.58,7.58,0,0,1,3.42,2.73,9,9,0,0,1,1.51,5.53,9.5,9.5,0,0,1-2.09,6.07,13.21,13.21,0,0,1-5.74,4.06,22.63,22.63,0,0,1-8.19,1.42q-6.9,0-10.86-2.36a12.63,12.63,0,0,1-5.53-7.68L215.07,204c0,2,.5,3.38,1.39,4.21a5,5,0,0,0,3.57,1.23,5.12,5.12,0,0,0,3.26-1,3.41,3.41,0,0,0,1.21-2.84,3.34,3.34,0,0,0-1.15-2.79,5.91,5.91,0,0,0-3.63-.9h-2.48V194.6h1.88a5.16,5.16,0,0,0,3.44-.94,3.8,3.8,0,0,0,1.15-2.93,3.93,3.93,0,0,0-1-2.9,3.77,3.77,0,0,0-2.79-1q-4.35,0-4.53,5.2l-10.7-3.45q1.5-11,16.08-11Q227.83,177.55,231.69,180.57Z"/></svg>