<svg id="Layer_1" data-name="Layer 1" xmlns="http://www.w3.org/2000/svg" viewBox="0 0 334.58 304.12"><defs><style>.cls-1{fill:#b3b3b3;}.cls-2{fill:#fff;}</style></defs><rect class="cls-1" width="334.58" height="304.12"/><rect class="cls-2" x="21.66" y="12.5" width="200" height="200" rx="100"/><path d="M97.11,133.4q15.49-8.9,23-16.85t7.5-14.55a7.82,7.82,0,0,0-1.8-5.35,6.54,6.54,0,0,0-5.2-2.05q-8.2,0-8.2,12.6l-17.5-4.7a22.9,22.9,0,0,1,3.5-12.9,21.47,21.47,0,0,1,9.6-7.95A34.53,34.53,0,0,1,121.91,79q8.9,0,14.7,3.2a20.5,20.5,0,0,1,11.2,18.2q0,9.19-6.9,16.6t-19.8,14.2v.2q6.19-.5,14.6-.5h12.7V146H97.11Z"/><circle class="cls-1" cx="238.36" cy="217.06" r="65.72"/><circle class="cls-1" cx="238.36" cy="217.06" r="74.56"/><path class="cls-2" d="M238.36,287.78a70.72,70.72,0,1,1,70.72-70.72A70.8,70.8,0,0,1,238.36,287.78Zm0-131.44a60.72,60.72,0,1,0,60.72,60.72A60.79,60.79,0,0,0,238.36,156.34Z"/><path d="M226.29,237,221.15,227,216.08,237H202.65l10.7-15.36L203,206.72h13.6l4.78,9.44,4.89-9.44h13.37l-10.34,15.06L239.9,237Z"/><path d="M268.92,199.47a10.12,10.12,0,0,1,3.87,8.46,8.88,8.88,0,0,1-1.39,5.2,8.27,8.27,0,0,1-3.17,2.84,7.19,7.19,0,0,1-2.94.85v.24a10.09,10.09,0,0,1,3.36.7,7.55,7.55,0,0,1,3.42,2.72,9.1,9.1,0,0,1,1.51,5.53,9.51,9.51,0,0,1-2.09,6.08,13.28,13.28,0,0,1-5.74,4,22.43,22.43,0,0,1-8.2,1.42q-6.88,0-10.85-2.36a12.63,12.63,0,0,1-5.53-7.68l11.12-4.65c0,2,.51,3.38,1.39,4.2a5,5,0,0,0,3.57,1.24,5.08,5.08,0,0,0,3.27-1,3.43,3.43,0,0,0,1.21-2.84,3.33,3.33,0,0,0-1.15-2.78,5.9,5.9,0,0,0-3.63-.91h-2.48V213.5h1.87a5.23,5.23,0,0,0,3.45-.94,3.82,3.82,0,0,0,1.15-2.93,3.93,3.93,0,0,0-1-2.91,3.76,3.76,0,0,0-2.78-1q-4.35,0-4.53,5.2l-10.71-3.45q1.52-11,16.09-11Q265,196.45,268.92,199.47Z"/></svg>