<svg id="Layer_1" data-name="Layer 1" xmlns="http://www.w3.org/2000/svg" viewBox="0 0 334.58 304.12"><defs><style>.cls-1{fill:#b3b3b3;}.cls-2{fill:#fff;}</style></defs><rect class="cls-1" x="-1.75" width="334.58" height="304.12"/><rect class="cls-2" x="61.48" y="31.25" width="125" height="125" rx="62.5"/><path d="M142.08,60.75v66h-19.6V80.25q-7.5,6.7-15.1,7.9l-1.5-16.6a31.89,31.89,0,0,0,11.7-3.9q6.11-3.3,8.5-6.9Z"/><circle class="cls-1" cx="198.54" cy="198.31" r="65.72"/><circle class="cls-1" cx="198.54" cy="198.31" r="74.56"/><path class="cls-2" d="M198.54,269a70.72,70.72,0,1,1,70.72-70.72A70.8,70.8,0,0,1,198.54,269Zm0-131.44a60.72,60.72,0,1,0,60.72,60.72A60.79,60.79,0,0,0,198.54,137.59Z"/><path d="M189.07,220.73l-5.14-9.92-5.08,9.92H165.42l10.71-15.36-10.34-14.88h13.6l4.78,9.44,4.9-9.44h13.36l-10.34,15.06,10.58,15.18Z"/><path d="M205.82,213.11q9.36-5.38,13.9-10.19t4.54-8.8a4.73,4.73,0,0,0-1.09-3.23,4,4,0,0,0-3.14-1.24q-5,0-5,7.62l-10.58-2.85a13.86,13.86,0,0,1,2.11-7.8,13,13,0,0,1,5.81-4.8,20.84,20.84,0,0,1,8.4-1.6,18.26,18.26,0,0,1,8.89,1.93,12.39,12.39,0,0,1,6.77,11,14.36,14.36,0,0,1-4.17,10,44.75,44.75,0,0,1-12,8.59v.12q3.75-.3,8.82-.3h7.68v9.13h-31Z"/></svg>