<svg id="Layer_1" data-name="Layer 1" xmlns="http://www.w3.org/2000/svg" viewBox="0 0 334.58 304.12"><defs><style>.cls-1{fill:#b3b3b3;}.cls-2{fill:#fff;}</style></defs><rect class="cls-1" x="-1.75" width="334.58" height="304.12"/><rect class="cls-2" x="61.48" y="31.25" width="125" height="125" rx="62.5"/><path d="M142.08,60.75v66h-19.6V80.25q-7.5,6.7-15.1,7.9l-1.5-16.6a31.89,31.89,0,0,0,11.7-3.9q6.11-3.3,8.5-6.9Z"/><circle class="cls-1" cx="198.54" cy="198.31" r="65.72"/><circle class="cls-1" cx="198.54" cy="198.31" r="74.56"/><path class="cls-2" d="M198.54,269a70.72,70.72,0,1,1,70.72-70.72A70.8,70.8,0,0,1,198.54,269Zm0-131.44a60.72,60.72,0,1,0,60.72,60.72A60.79,60.79,0,0,0,198.54,137.59Z"/><path d="M189.07,223.39l-5.14-9.91-5.08,9.91H165.42L176.13,208l-10.34-14.87h13.6l4.78,9.43,4.9-9.43h13.36l-10.34,15.06,10.58,15.17Z"/><path d="M225.77,183.49v39.9H213.92V195.28a18.13,18.13,0,0,1-9.13,4.77l-.91-10a19.44,19.44,0,0,0,7.08-2.36,14.09,14.09,0,0,0,5.13-4.17Z"/></svg>