<svg id="Layer_1" data-name="Layer 1" xmlns="http://www.w3.org/2000/svg" viewBox="0 0 334.58 304.12"><defs><style>.cls-1{fill:#b3b3b3;}.cls-2{fill:#fff;}</style></defs><rect class="cls-1" width="334.58" height="304.12"/><rect class="cls-2" x="21.66" y="12.5" width="200" height="200" rx="100"/><path d="M97.11,133.4q15.49-8.9,23-16.85t7.5-14.55a7.82,7.82,0,0,0-1.8-5.35,6.54,6.54,0,0,0-5.2-2.05q-8.2,0-8.2,12.6l-17.5-4.7a22.9,22.9,0,0,1,3.5-12.9,21.47,21.47,0,0,1,9.6-7.95A34.53,34.53,0,0,1,121.91,79q8.9,0,14.7,3.2a20.5,20.5,0,0,1,11.2,18.2q0,9.19-6.9,16.6t-19.8,14.2v.2q6.19-.5,14.6-.5h12.7V146H97.11Z"/><circle class="cls-1" cx="238.36" cy="217.06" r="65.72"/><circle class="cls-1" cx="238.36" cy="217.06" r="74.56"/><path class="cls-2" d="M238.36,287.78a70.72,70.72,0,1,1,70.72-70.72A70.8,70.8,0,0,1,238.36,287.78Zm0-131.44a60.72,60.72,0,1,0,60.72,60.72A60.79,60.79,0,0,0,238.36,156.34Z"/><path d="M226.29,239.62l-5.14-9.91-5.07,9.91H202.65l10.7-15.36L203,209.39h13.6l4.78,9.43,4.89-9.43h13.37l-10.34,15.06,10.58,15.17Z"/><path d="M243,232q9.38-5.37,13.91-10.18t4.53-8.8a4.77,4.77,0,0,0-1.08-3.24,4,4,0,0,0-3.15-1.24q-5,0-5,7.62l-10.58-2.84a13.87,13.87,0,0,1,2.12-7.8,13,13,0,0,1,5.8-4.81,21.06,21.06,0,0,1,8.41-1.6,18.28,18.28,0,0,1,8.89,1.94,12.36,12.36,0,0,1,6.77,11,14.38,14.38,0,0,1-4.17,10,45,45,0,0,1-12,8.58v.12c2.5-.2,5.45-.3,8.83-.3h7.68v9.13H243Z"/></svg>