<svg id="Layer_1" data-name="Layer 1" xmlns="http://www.w3.org/2000/svg" viewBox="0 0 334.58 304.12"><defs><style>.cls-1{fill:#b3b3b3;}.cls-2{fill:#fff;}</style></defs><rect class="cls-1" width="334.58" height="304.12"/><rect class="cls-2" width="250" height="250" rx="125"/><path d="M144.1,96q6.41,5,6.4,14a14.77,14.77,0,0,1-2.3,8.6,13.54,13.54,0,0,1-5.25,4.7,12,12,0,0,1-4.85,1.4v.4a16.41,16.41,0,0,1,5.55,1.15,12.56,12.56,0,0,1,5.65,4.5q2.5,3.34,2.5,9.15a15.71,15.71,0,0,1-3.45,10,22,22,0,0,1-9.5,6.7A37.08,37.08,0,0,1,125.3,159q-11.4,0-18-3.9T98.2,142.4l18.4-7.7c.07,3.27.83,5.58,2.3,7a9.7,9.7,0,0,0,11.3.45,5.67,5.67,0,0,0,2-4.7,5.49,5.49,0,0,0-1.9-4.6q-1.91-1.5-6-1.5h-4.1V119.2h3.1q3.9,0,5.7-1.55a6.34,6.34,0,0,0,1.9-4.85,6.49,6.49,0,0,0-1.7-4.8,6.23,6.23,0,0,0-4.6-1.7q-7.2,0-7.5,8.6l-17.7-5.7Q101.9,91,126,91,137.7,91,144.1,96Z"/><circle class="cls-1" cx="260.02" cy="229.56" r="65.72"/><circle class="cls-1" cx="260.02" cy="229.56" r="74.56"/><path class="cls-2" d="M260,300.28a70.72,70.72,0,1,1,70.72-70.72A70.8,70.8,0,0,1,260,300.28Zm0-131.44a60.72,60.72,0,1,0,60.72,60.72A60.79,60.79,0,0,0,260,168.84Z"/><path d="M245.22,252.22l-5.14-9.92L235,252.22H221.58l10.7-15.36L221.94,222h13.61l4.77,9.43,4.9-9.43h13.36l-10.34,15,10.58,15.18Z"/><path d="M262,244.6q9.38-5.39,13.91-10.19t4.53-8.8a4.7,4.7,0,0,0-1.09-3.23,3.93,3.93,0,0,0-3.14-1.24q-5,0-5,7.62l-10.58-2.84a13.74,13.74,0,0,1,2.12-7.8,13,13,0,0,1,5.8-4.81,20.87,20.87,0,0,1,8.4-1.6,18.26,18.26,0,0,1,8.89,1.93,12.64,12.64,0,0,1,5.14,4.9,12.47,12.47,0,0,1,1.63,6.11,14.34,14.34,0,0,1-4.17,10,44.75,44.75,0,0,1-12,8.59v.12q3.75-.3,8.83-.3H293v9.13H262Z"/></svg>