<svg id="Layer_1" data-name="Layer 1" xmlns="http://www.w3.org/2000/svg" viewBox="0 0 334.58 304.12"><defs><style>.cls-1{fill:#b3b3b3;}.cls-2{fill:#fff;}</style></defs><rect class="cls-1" width="334.58" height="304.12"/><rect class="cls-2" width="250" height="250" rx="125"/><path d="M144.1,96q6.41,5,6.4,14a14.77,14.77,0,0,1-2.3,8.6,13.54,13.54,0,0,1-5.25,4.7,12,12,0,0,1-4.85,1.4v.4a16.41,16.41,0,0,1,5.55,1.15,12.56,12.56,0,0,1,5.65,4.5q2.5,3.34,2.5,9.15a15.71,15.71,0,0,1-3.45,10,22,22,0,0,1-9.5,6.7A37.08,37.08,0,0,1,125.3,159q-11.4,0-18-3.9T98.2,142.4l18.4-7.7c.07,3.27.83,5.58,2.3,7a9.7,9.7,0,0,0,11.3.45,5.67,5.67,0,0,0,2-4.7,5.49,5.49,0,0,0-1.9-4.6q-1.91-1.5-6-1.5h-4.1V119.2h3.1q3.9,0,5.7-1.55a6.34,6.34,0,0,0,1.9-4.85,6.49,6.49,0,0,0-1.7-4.8,6.23,6.23,0,0,0-4.6-1.7q-7.2,0-7.5,8.6l-17.7-5.7Q101.9,91,126,91,137.7,91,144.1,96Z"/><circle class="cls-1" cx="260.02" cy="229.56" r="65.72"/><circle class="cls-1" cx="260.02" cy="229.56" r="74.56"/><path class="cls-2" d="M260,300.28a70.72,70.72,0,1,1,70.72-70.72A70.8,70.8,0,0,1,260,300.28Zm0-131.44a60.72,60.72,0,1,0,60.72,60.72A60.79,60.79,0,0,0,260,168.84Z"/><path d="M245.22,249.55l-5.14-9.91L235,249.55H221.58l10.7-15.35-10.34-14.88h13.61l4.77,9.43,4.9-9.43h13.36l-10.34,15.06,10.58,15.17Z"/><path d="M287.85,212.07a10.11,10.11,0,0,1,3.87,8.46,9,9,0,0,1-1.39,5.2,8.22,8.22,0,0,1-3.18,2.84,7.15,7.15,0,0,1-2.93.85v.24a9.85,9.85,0,0,1,3.36.7,7.53,7.53,0,0,1,3.41,2.72,9,9,0,0,1,1.51,5.53,9.52,9.52,0,0,1-2.08,6.08,13.31,13.31,0,0,1-5.75,4.05,22.63,22.63,0,0,1-8.19,1.42q-6.89,0-10.85-2.36a12.59,12.59,0,0,1-5.53-7.68l11.12-4.66c0,2,.5,3.38,1.39,4.21a5.85,5.85,0,0,0,6.83.27,3.41,3.41,0,0,0,1.21-2.84,3.31,3.31,0,0,0-1.15-2.78,5.78,5.78,0,0,0-3.62-.91H273.4v-7.32h1.87a5.27,5.27,0,0,0,3.45-.93,3.87,3.87,0,0,0,1.15-2.94,4,4,0,0,0-1-2.9,3.78,3.78,0,0,0-2.78-1c-2.9,0-4.42,1.74-4.54,5.2l-10.7-3.44q1.51-11,16.08-11Q284,209,287.85,212.07Z"/></svg>