<svg id="Layer_1" data-name="Layer 1" xmlns="http://www.w3.org/2000/svg" viewBox="0 0 300 300"><defs><style>.cls-1{fill:#b3b3b3;}.cls-2{fill:#fff;}</style></defs><rect class="cls-1" width="300" height="300"/><rect class="cls-2" x="50" y="50" width="200" height="200" rx="100"/><path d="M125.45,170.9q15.49-8.9,23-16.85T156,139.5a7.82,7.82,0,0,0-1.8-5.35,6.54,6.54,0,0,0-5.2-2.05q-8.2,0-8.2,12.6l-17.5-4.7a22.9,22.9,0,0,1,3.5-12.9,21.47,21.47,0,0,1,9.6-7.95,34.53,34.53,0,0,1,13.9-2.65q8.9,0,14.7,3.2a20.5,20.5,0,0,1,11.2,18.2q0,9.19-6.9,16.6t-19.8,14.2v.2q6.2-.5,14.6-.5h12.7v15.1h-51.3Z"/></svg>